<svg width="179" height="53" viewBox="0 0 179 53" fill="none" xmlns="http://www.w3.org/2000/svg">
<path d="M56.7849 36.8417V26.7891H64.3148V29.0125H59.3896V30.1005H61.2602C62.4442 30.1005 63.415 30.408 64.1254 31.0467C64.8358 31.6853 65.191 32.4895 65.191 33.483C65.191 34.4764 64.8358 35.3043 64.1254 35.9193C63.415 36.5342 62.4679 36.8654 61.2602 36.8654H56.7849V36.8417ZM59.3896 34.642H61.0708C61.9943 34.642 62.5863 34.1689 62.5863 33.412C62.5863 32.6314 61.9943 32.1347 61.0708 32.1347H59.3896V34.642Z" fill="#202426"/>
<path d="M66.825 36.7235V34.3581C67.1091 34.4764 67.3459 34.5474 67.5827 34.5474C68.0799 34.5474 68.4114 34.2399 68.5535 33.6249C68.7193 33.0099 68.7903 31.7326 68.814 29.8167L68.8377 26.7891H76.3676V36.8417H73.7866V29.0598H71.3713L71.3476 30.1715C71.2766 32.868 71.0161 34.6183 70.5662 35.4225C70.0216 36.4396 69.1455 36.9363 67.9379 36.9363C67.4169 36.9363 67.0617 36.8654 66.825 36.7235Z" fill="#202426"/>
<path d="M78.5461 36.8418L82.7847 26.7181H85.271L89.5095 36.8418H86.7154L85.863 34.7129H82.1217L81.2692 36.8418H78.5461ZM82.9504 32.6551H85.0579L84.016 29.9586L82.9504 32.6551Z" fill="#202426"/>
<path d="M91.6877 36.8417V26.7891H99.1229V29.0598H94.2688V36.8417H91.6877Z" fill="#202426"/>
<path d="M106.085 37.0546C104.569 37.0546 103.29 36.5579 102.296 35.5408C101.278 34.5237 100.781 33.2938 100.781 31.8272C100.781 30.3607 101.278 29.1308 102.296 28.1137C103.314 27.0966 104.569 26.5999 106.085 26.5999C107.6 26.5999 108.879 27.0966 109.873 28.1137C110.891 29.1308 111.389 30.3607 111.389 31.8272C111.389 33.2938 110.891 34.5237 109.873 35.5408C108.879 36.5343 107.6 37.0546 106.085 37.0546ZM106.085 34.6656C106.842 34.6656 107.458 34.3818 107.979 33.8614C108.476 33.3411 108.737 32.6315 108.737 31.8272C108.737 31.023 108.476 30.3134 107.979 29.7931C107.482 29.2727 106.866 28.9888 106.085 28.9888C105.303 28.9888 104.688 29.2727 104.19 29.7931C103.693 30.3134 103.433 31.023 103.433 31.8272C103.433 32.6315 103.669 33.3411 104.19 33.8614C104.688 34.3818 105.327 34.6656 106.085 34.6656Z" fill="#202426"/>
<path d="M112.762 38.805V34.571H113.733C114.491 33.341 114.893 31.3305 114.893 28.5867V26.7654H122.4V34.5474H123.726V38.805H121.287V36.8417H115.225V38.805H112.762ZM119.795 34.571V29.0598H117.451C117.427 31.1649 117.119 33.0099 116.551 34.571H119.795Z" fill="#202426"/>
<path d="M125.312 36.8418L129.55 26.7181H132.037L136.275 36.8418H133.505L132.652 34.7129H128.911L128.059 36.8418H125.312ZM129.716 32.6551H131.823L130.782 29.9586L129.716 32.6551Z" fill="#202426"/>
<path d="M139.472 36.8417V29.0598H136.441V26.7891H145.084V29.0598H142.053V36.8417H139.472Z" fill="#202426"/>
<path d="M147.547 36.8417V26.7891H150.128V29.8877H151.951C153.182 29.8877 154.153 30.2188 154.887 30.8574C155.621 31.4961 156 32.3476 156 33.3647C156 34.3818 155.645 35.2097 154.911 35.8719C154.177 36.5106 153.206 36.8417 151.951 36.8417H147.547ZM150.128 34.642H151.785C152.756 34.642 153.372 34.1453 153.372 33.341C153.372 32.5132 152.756 31.9928 151.785 31.9928H150.128V34.642Z" fill="#202426"/>
<path fill-rule="evenodd" clip-rule="evenodd" d="M48.2132 34.098C45.3718 35.3989 43.6432 35.5881 38.8127 35.2806C37.6287 35.2097 35.616 34.8312 34.6925 34.9258C32.7982 35.1151 31.3301 37.031 31.3538 38.805C31.4485 38.805 31.5432 38.805 31.6143 38.805C31.5196 36.8654 33.3428 35.3989 34.5978 35.2806C35.7581 35.2333 36.4211 35.3989 37.2499 35.4935C41.7252 35.9902 45.1586 36.5579 48.5684 34.9022C48.45 34.6183 48.3316 34.3581 48.2132 34.098Z" fill="#202426"/>
<path fill-rule="evenodd" clip-rule="evenodd" d="M48.9711 35.6118C46.2717 36.487 44.0932 36.5106 39.3574 36.1558C38.2445 36.0612 35.5688 35.7301 34.669 35.801C32.8694 35.9193 32.088 37.575 32.1353 38.7813C32.23 38.7813 32.3011 38.7813 32.3958 38.7813C32.3011 37.4567 33.4613 36.2741 34.669 36.2031C35.7819 36.1795 36.9895 36.3687 37.7709 36.416C42.0568 36.6289 46.1296 37.4804 49.3973 36.345C49.2789 36.1558 49.0895 35.801 48.9711 35.6118Z" fill="#202426"/>
<path fill-rule="evenodd" clip-rule="evenodd" d="M49.8234 37.0073C47.2661 37.5277 44.4009 37.2202 39.9256 37.0073C38.8837 36.96 35.9949 36.5342 35.1425 36.5579C33.4376 36.6289 33.0824 38.0717 33.1061 38.805H33.3429C33.2481 38.0008 33.7217 37.031 34.882 36.9837C35.9239 36.96 37.6998 37.1965 38.4338 37.2438C42.4356 37.4804 47.0767 38.0008 50.4864 38.119C50.368 37.9771 49.9418 37.1019 49.8234 37.0073Z" fill="#202426"/>
<path fill-rule="evenodd" clip-rule="evenodd" d="M50.6523 38.4265C46.6979 38.4029 44.5668 38.0481 40.3283 37.7642C39.3101 37.6933 35.5925 37.3858 34.7874 37.4094C33.8639 37.5514 33.7929 38.5211 33.8403 39.2307H34.7874C34.6217 37.8115 36.7291 38.261 38.8365 38.4029C42.6725 38.6394 47.7161 39.1361 50.9838 39.2544C50.8418 39.1361 50.7471 38.5211 50.6523 38.4265Z" fill="#202426"/>
<path fill-rule="evenodd" clip-rule="evenodd" d="M13.7368 34.098C16.5783 35.3989 18.3068 35.5881 23.1373 35.2806C24.3213 35.2097 26.334 34.8312 27.2575 34.9258C29.1518 35.1151 30.6199 37.031 30.5962 38.805C30.5015 38.805 30.4068 38.805 30.3357 38.805C30.4305 36.8654 28.6072 35.3989 27.3522 35.2806C26.1919 35.2333 25.5289 35.3989 24.7001 35.4935C20.2248 35.9902 16.7914 36.5579 13.3816 34.9022C13.5 34.6183 13.6184 34.3581 13.7368 34.098Z" fill="#202426"/>
<path fill-rule="evenodd" clip-rule="evenodd" d="M12.979 35.6118C15.6784 36.487 17.8568 36.5106 22.5926 36.1558C23.7055 36.0612 26.3813 35.7301 27.2811 35.801C29.0807 35.9193 29.8621 37.575 29.8147 38.7813C29.72 38.7813 29.649 38.7813 29.5542 38.7813C29.649 37.4567 28.4887 36.2741 27.2811 36.2031C26.1682 36.1795 24.9605 36.3687 24.1791 36.416C19.8932 36.6289 15.8204 37.4804 12.5527 36.345C12.6711 36.1558 12.8606 35.801 12.979 35.6118Z" fill="#202426"/>
<path fill-rule="evenodd" clip-rule="evenodd" d="M12.1266 37.0073C14.684 37.5277 17.5491 37.2202 22.0245 37.0073C23.0663 36.96 25.9552 36.5342 26.8076 36.5579C28.5125 36.6289 28.8677 38.0717 28.844 38.805H28.6072C28.7019 38.0008 28.2283 37.031 27.0681 36.9837C26.0262 36.96 24.2503 37.1965 23.5162 37.2438C19.5145 37.4804 14.8734 38.0008 11.4636 38.119C11.582 37.9771 12.0082 37.1019 12.1266 37.0073Z" fill="#202426"/>
<path fill-rule="evenodd" clip-rule="evenodd" d="M11.2978 38.4265C15.2522 38.4029 17.3833 38.0481 21.6219 37.7642C22.64 37.6933 26.3576 37.3858 27.1627 37.4094C28.0862 37.5514 28.1573 38.5211 28.1099 39.2307H27.3522C27.5179 37.8115 25.2211 38.261 23.1136 38.4029C19.2776 38.6394 14.234 39.1361 10.9663 39.2544C11.1084 39.1361 11.2031 38.5211 11.2978 38.4265Z" fill="#202426"/>
<path fill-rule="evenodd" clip-rule="evenodd" d="M31.0697 39.7038C29.649 39.7038 28.536 39.7038 27.1153 39.7038C26.7838 39.6565 27.0916 38.7813 26.8785 38.6867C21.3613 38.9469 15.8441 39.2544 10.3269 39.5146C10.2559 39.3963 10.2559 39.0415 10.2795 38.8759C15.9862 38.5211 21.7165 38.261 27.4231 37.8825C27.6836 38.1427 27.2811 38.7104 27.4705 39.0415H31.0697H34.6452C34.8347 38.7104 34.4321 38.1427 34.6926 37.8825C40.3992 38.2373 46.1295 38.4975 51.8362 38.8759C51.8598 39.0415 51.8835 39.3963 51.7888 39.5146C46.2716 39.2544 40.7544 38.9469 35.2372 38.6867C35.0241 38.805 35.3319 39.6565 35.0004 39.7038C33.627 39.7038 32.4904 39.7038 31.0697 39.7038Z" fill="#202426"/>
<path d="M14.1393 28.634C13.9972 24.6839 15.0864 21.1359 17.0518 18.2739H15.9625C14.0919 21.2069 13.0974 24.7549 13.2158 28.6577C13.2631 30.1952 13.4999 31.7563 13.9025 33.3884C13.9735 33.6249 14.2103 33.7905 14.4471 33.7195C14.6839 33.6485 14.8496 33.412 14.7786 33.1755C14.3997 31.6144 14.1866 30.1005 14.1393 28.634Z" fill="#202426"/>
<path d="M49.3498 27.9244C49.2551 24.2108 47.858 20.5209 45.5611 17.446C43.2643 14.371 40.0913 11.9348 36.3974 10.7521C34.6925 10.2081 32.8929 9.92422 31.0222 9.97153C29.5068 10.0188 28.0624 10.2317 26.6653 10.5865C24.3211 11.2015 22.1663 12.2186 20.3193 13.5905V14.7495C22.19 13.2357 24.4395 12.124 26.9021 11.4853C28.2281 11.1542 29.6252 10.9413 31.0696 10.894H31.0933C32.8455 10.8467 34.5504 11.1069 36.1369 11.6273C39.6177 12.739 42.6486 15.0806 44.8271 17.99C47.0056 20.8994 48.3316 24.4237 48.4263 27.9481C48.4737 29.5328 48.2605 31.094 47.7633 32.6314C47.6922 32.868 47.8106 33.1282 48.0474 33.1991C48.2842 33.2701 48.5447 33.1518 48.6157 32.9153C49.184 31.2595 49.3971 29.5802 49.3498 27.9244Z" fill="#202426"/>
<path d="M15.6309 28.2319C15.5599 25.7483 16.1045 23.383 17.1227 21.3015V20.1425C15.7493 22.5315 14.9916 25.3226 15.0863 28.2556C15.1573 30.2661 15.6072 32.3476 16.5307 34.4528C16.6018 34.5947 16.7438 34.6656 16.8859 34.5947C17.028 34.5237 17.0753 34.3818 17.028 34.2399C16.1519 32.182 15.702 30.1715 15.6309 28.2319Z" fill="#202426"/>
<path d="M44.4957 18.7706C42.625 16.0505 39.9256 13.9453 36.6579 12.7626C34.9531 12.1477 33.0824 11.7929 31.1171 11.7219H31.0934C28.9623 11.7929 26.9022 12.2659 25.0079 13.0938C23.6819 13.6615 22.4506 14.4184 21.314 15.2935H22.2138C23.1372 14.6313 24.1554 14.0399 25.221 13.5905C27.0443 12.7863 29.057 12.3132 31.1171 12.2423C33.0351 12.2896 34.8347 12.6444 36.4922 13.2357C39.6415 14.3711 42.2699 16.4289 44.0695 19.0544C45.8691 21.68 46.8636 24.8732 46.7689 28.3029C46.7215 30.1006 46.3663 31.9455 45.7033 33.8378C45.656 33.9797 45.727 34.1453 45.8691 34.1926C46.0111 34.2399 46.1769 34.1689 46.2243 34.027C46.9346 32.0874 47.2898 30.1715 47.3372 28.3265C47.3845 24.8022 46.3663 21.4907 44.4957 18.7706Z" fill="#202426"/>
<path fill-rule="evenodd" clip-rule="evenodd" d="M32.7982 16.4999C33.5086 18.3921 32.7982 19.2437 32.9166 20.1898C31.8274 18.7469 30.4066 17.5643 29.0806 16.831C28.8438 25.6301 23.9186 26.5998 19.8458 31.638C19.7747 31.7799 19.7037 31.9218 19.6564 32.0874V17.7535H25.5051V15.8849H19.6564V9.87692H18.6855H17.7147V15.8849H11.866V17.7535H17.7147V34.7602C17.7147 34.7602 18.5671 34.9258 19.538 34.9968C22.7583 35.257 25.9076 33.9324 28.4886 34.7129C29.4831 35.2333 30.3593 35.8956 30.9512 37.031C32.3246 34.2399 34.6452 34.1216 37.5103 34.5947C39.7361 34.9495 43.6432 35.115 44.5903 34.4291C34.8819 30.3844 43.4774 24.5657 32.7982 16.4999ZM30.7855 35.186C29.199 33.0099 27.2573 32.7497 27.4704 30.6446C27.7782 27.6406 30.4066 25.2989 31.1643 20.8284C31.9931 21.3961 32.6561 22.6024 33.2955 23.7614C33.6033 22.839 34.1242 22.1767 34.5504 21.5617C36.5158 24.3528 36.0659 27.6406 34.3847 29.6511C32.8456 31.5434 29.6962 31.8036 30.7855 35.186ZM35.1424 31.8982C34.1005 32.6314 32.7272 32.8916 31.709 33.7195C31.6142 32.2293 33.4375 31.6144 34.4557 30.8338C35.5213 30.0059 35.9475 29.249 36.6579 28.09C36.5868 29.5092 36.5868 30.9048 35.1424 31.8982Z" fill="#202426"/>
</svg>
