<?xml version="1.0" encoding="utf-8"?>
<!-- Generator: Adobe Illustrator 23.0.1, SVG Export Plug-In . SVG Version: 6.00 Build 0)  -->
<svg version="1.1" id="Шар_1" xmlns="http://www.w3.org/2000/svg" xmlns:xlink="http://www.w3.org/1999/xlink" x="0px" y="0px"
	 viewBox="0 0 48 48" style="enable-background:new 0 0 48 48;" xml:space="preserve">
<g>
	<g>
		<path d="M30.8,15.8c-0.8,0-1.5,0.7-1.5,1.5c0,0.8,0.7,1.5,1.5,1.5c0.8,0,1.5-0.7,1.5-1.5C32.3,16.4,31.6,15.8,30.8,15.8z"/>
		<path d="M24.1,17.7c-3.5,0-6.3,2.8-6.3,6.3c0,3.5,2.8,6.3,6.3,6.3c3.5,0,6.3-2.8,6.3-6.3C30.4,20.5,27.6,17.7,24.1,17.7z M24.1,28
			c-2.2,0-4-1.8-4-4s1.8-4,4-4c2.2,0,4,1.8,4,4S26.3,28,24.1,28z"/>
		<path d="M29.1,36.8H18.9c-4.2,0-7.7-3.4-7.7-7.7V18.9c0-4.2,3.4-7.7,7.7-7.7h10.2c4.2,0,7.7,3.4,7.7,7.7v10.2
			C36.8,33.4,33.4,36.8,29.1,36.8z M18.9,13.6c-2.9,0-5.3,2.4-5.3,5.3v10.2c0,2.9,2.4,5.3,5.3,5.3h10.2c2.9,0,5.3-2.4,5.3-5.3V18.9
			c0-2.9-2.4-5.3-5.3-5.3H18.9z"/>
	</g>
</g>
</svg>
