<svg width="11" height="15" viewBox="0 0 11 15" fill="none" xmlns="http://www.w3.org/2000/svg">
<path fill-rule="evenodd" clip-rule="evenodd" d="M0 5.63394V5.90081C0 7.20377 0.445775 8.46794 1.26401 9.48533L5.5 14.7527L9.73601 9.48533C10.5542 8.46794 11 7.20377 11 5.90081V5.63394C11 2.61225 8.53756 0.162689 5.5 0.162689C2.46243 0.162689 0 2.61225 0 5.63394ZM5.5 7.45769C6.51252 7.45769 7.33333 6.64117 7.33333 5.63394C7.33333 4.62671 6.51252 3.81019 5.5 3.81019C4.48748 3.81019 3.66667 4.62671 3.66667 5.63394C3.66667 6.64117 4.48748 7.45769 5.5 7.45769Z" fill="#F2541B"/>
</svg>
