<?xml version="1.0" encoding="utf-8"?>
<!-- Generator: Adobe Illustrator 23.0.1, SVG Export Plug-In . SVG Version: 6.00 Build 0)  -->
<svg version="1.1" id="Шар_1" xmlns="http://www.w3.org/2000/svg" xmlns:xlink="http://www.w3.org/1999/xlink" x="0px" y="0px"
	 viewBox="0 0 48 48" style="enable-background:new 0 0 48 48;" xml:space="preserve">
<path d="M41,5.2H7c-3.8,0-6.9,3.1-6.9,6.9v23.7c0,3.8,3.1,6.9,6.9,6.9h34c3.8,0,6.9-3.1,6.9-6.9V12.1C47.9,8.3,44.8,5.2,41,5.2z
	 M41,8.5c0.3,0,0.6,0,0.8,0.1L27.5,24.9c-0.9,1-2.1,1.6-3.5,1.6c-1.3,0-2.6-0.6-3.5-1.6L6.2,8.6C6.4,8.6,6.7,8.5,7,8.5H41z
	 M44.6,35.9c0,2-1.6,3.6-3.6,3.6H7c-2,0-3.6-1.6-3.6-3.6V12.1c0-0.5,0.1-0.9,0.3-1.4l14.4,16.3c1.5,1.7,3.7,2.7,5.9,2.7
	c2.3,0,4.4-1,5.9-2.7l14.4-16.3c0.2,0.4,0.3,0.9,0.3,1.4V35.9z"/>
</svg>
