<svg width="28" height="22" viewBox="0 0 28 22" fill="none" xmlns="http://www.w3.org/2000/svg">
<path d="M26.2219 0.961609H1.77806C0.796063 0.961609 0 1.75767 0 2.73967C0 3.72166 0.796063 4.51772 1.77806 4.51772H26.2219C27.2039 4.51772 28 3.72166 28 2.73967C28 1.75767 27.2039 0.961609 26.2219 0.961609Z" fill="#202426"/>
<path d="M26.2219 9.25922H1.77805C0.796062 9.25922 0 10.0553 0 11.0373C0 12.0193 0.796062 12.8153 1.77805 12.8153H26.2219C27.2039 12.8153 28 12.0193 28 11.0373C28 10.0553 27.2039 9.25922 26.2219 9.25922Z" fill="#202426"/>
<path d="M26.2219 17.5568H1.77805C0.796062 17.5568 0 18.3529 0 19.3349C0 20.3169 0.796062 21.1129 1.77805 21.1129H26.2219C27.2039 21.1129 28 20.3169 28 19.3349C28 18.3529 27.2039 17.5568 26.2219 17.5568Z" fill="#202426"/>
</svg>
