<svg width="146" height="30" viewBox="0 0 146 30" fill="none" xmlns="http://www.w3.org/2000/svg">
<path d="M46.5195 26.3882V16.5505H54.0494V18.7264H49.1242V19.7912H50.9949C52.1788 19.7912 53.1496 20.0921 53.86 20.7171C54.5704 21.3421 54.9256 22.1291 54.9256 23.1013C54.9256 24.0735 54.5704 24.8836 53.86 25.4855C53.1496 26.0873 52.2025 26.4114 50.9949 26.4114H46.5195V26.3882ZM49.1242 24.2355H50.8054C51.7289 24.2355 52.3209 23.7726 52.3209 23.0318C52.3209 22.268 51.7289 21.7819 50.8054 21.7819H49.1242V24.2355Z" fill="white"/>
<path d="M56.5596 26.2724V23.9577C56.8437 24.0734 57.0805 24.1428 57.3173 24.1428C57.8146 24.1428 58.1461 23.8419 58.2881 23.2401C58.4539 22.6383 58.5249 21.3883 58.5486 19.5134L58.5723 16.5505H66.1022V26.3881H63.5212V18.7727H61.1059L61.0823 19.8606C61.0112 22.4994 60.7507 24.2123 60.3008 24.9993C59.7562 25.9946 58.8801 26.4807 57.6725 26.4807C57.1515 26.4807 56.7964 26.4113 56.5596 26.2724Z" fill="white"/>
<path d="M68.2808 26.3884L72.5193 16.4812H75.0056L79.2441 26.3884H76.45L75.5976 24.3051H71.8563L71.0038 26.3884H68.2808ZM72.6851 22.2913H74.7925L73.7506 19.6524L72.6851 22.2913Z" fill="white"/>
<path d="M81.4224 26.3884V16.5505H88.8576V18.7727H84.0034V26.3884H81.4224Z" fill="white"/>
<path d="M95.8192 26.5959C94.3038 26.5959 93.0251 26.1099 92.0306 25.1146C91.0124 24.1193 90.5151 22.9158 90.5151 21.4807C90.5151 20.0457 91.0124 18.8421 92.0306 17.8468C93.0488 16.8515 94.3038 16.3655 95.8192 16.3655C97.3347 16.3655 98.6133 16.8515 99.6079 17.8468C100.626 18.8421 101.123 20.0457 101.123 21.4807C101.123 22.9158 100.626 24.1193 99.6079 25.1146C98.6133 26.0867 97.3347 26.5959 95.8192 26.5959ZM95.8192 24.2582C96.577 24.2582 97.1926 23.9805 97.7135 23.4713C98.2108 22.962 98.4713 22.2677 98.4713 21.4807C98.4713 20.6938 98.2108 19.9994 97.7135 19.4902C97.2163 18.981 96.6006 18.7032 95.8192 18.7032C95.0378 18.7032 94.4222 18.981 93.9249 19.4902C93.4276 19.9994 93.1672 20.6938 93.1672 21.4807C93.1672 22.2677 93.404 22.962 93.9249 23.4713C94.4222 23.9805 95.0615 24.2582 95.8192 24.2582Z" fill="white"/>
<path d="M102.497 28.3088V24.1656H103.468C104.225 22.9619 104.628 20.9944 104.628 18.3094V16.5271H112.134V24.1424H113.46V28.3088H111.021V26.3877H104.959V28.3088H102.497ZM109.529 24.1656V18.7723H107.185C107.162 20.8324 106.854 22.6379 106.285 24.1656H109.529Z" fill="white"/>
<path d="M115.046 26.3884L119.285 16.4812H121.771L126.01 26.3884H123.239L122.387 24.3051H118.646L117.793 26.3884H115.046ZM119.451 22.2913H121.558L120.516 19.6524L119.451 22.2913Z" fill="white"/>
<path d="M129.207 26.3884V18.7727H126.176V16.5505H134.819V18.7727H131.788V26.3884H129.207Z" fill="white"/>
<path d="M137.281 26.3884V16.5505H139.862V19.5829H141.686C142.917 19.5829 143.888 19.907 144.622 20.532C145.356 21.157 145.735 21.9903 145.735 22.9857C145.735 23.981 145.379 24.7912 144.645 25.4394C143.911 26.0644 142.941 26.3884 141.686 26.3884H137.281ZM139.862 24.2357H141.52C142.491 24.2357 143.106 23.7496 143.106 22.9625C143.106 22.1523 142.491 21.6431 141.52 21.6431H139.862V24.2357Z" fill="white"/>
<path fill-rule="evenodd" clip-rule="evenodd" d="M37.9479 23.7029C35.1064 24.9759 33.3778 25.161 28.5473 24.8602C27.3633 24.7907 25.3506 24.4204 24.4272 24.513C22.5328 24.6981 21.0647 26.5729 21.0884 28.3088C21.1831 28.3088 21.2779 28.3088 21.3489 28.3088C21.2542 26.4109 23.0775 24.9759 24.3324 24.8602C25.4927 24.8139 26.1557 24.9759 26.9845 25.0685C31.4598 25.5545 34.8933 26.11 38.303 24.4898C38.1846 24.2121 38.0662 23.9575 37.9479 23.7029Z" fill="white"/>
<path fill-rule="evenodd" clip-rule="evenodd" d="M38.7057 25.1838C36.0063 26.0404 33.8278 26.0635 29.092 25.7163C27.9791 25.6237 25.3034 25.2996 24.4036 25.369C22.604 25.4848 21.8226 27.1053 21.8699 28.2859C21.9647 28.2859 22.0357 28.2859 22.1304 28.2859C22.0357 26.9895 23.196 25.832 24.4036 25.7626C25.5165 25.7394 26.7241 25.9246 27.5055 25.9709C31.7914 26.1793 35.8642 27.0127 39.1319 25.9015C39.0135 25.7163 38.8241 25.369 38.7057 25.1838Z" fill="white"/>
<path fill-rule="evenodd" clip-rule="evenodd" d="M39.558 26.5498C37.0007 27.059 34.1355 26.7581 29.6602 26.5498C28.6183 26.5035 25.7295 26.0869 24.8771 26.1101C23.1722 26.1795 22.817 27.5913 22.8407 28.3088H23.0775C22.9828 27.5219 23.4563 26.573 24.6166 26.5267C25.6585 26.5035 27.4344 26.735 28.1685 26.7813C32.1702 27.0127 36.8113 27.5219 40.221 27.6376C40.1027 27.4988 39.6764 26.6424 39.558 26.5498Z" fill="white"/>
<path fill-rule="evenodd" clip-rule="evenodd" d="M40.387 27.9387C36.4326 27.9155 34.3015 27.5683 30.0629 27.2906C29.0447 27.2212 25.3271 26.9203 24.522 26.9434C23.5986 27.0823 23.5275 28.0313 23.5749 28.7256H24.522C24.3563 27.3369 26.4637 27.7767 28.5711 27.9155C32.4071 28.147 37.4508 28.633 40.7185 28.7488C40.5764 28.633 40.4817 28.0313 40.387 27.9387Z" fill="white"/>
<path fill-rule="evenodd" clip-rule="evenodd" d="M3.4714 23.7029C6.31287 24.9759 8.04144 25.161 12.872 24.8602C14.0559 24.7907 16.0686 24.4204 16.9921 24.513C18.8864 24.6981 20.3545 26.5729 20.3308 28.3088C20.2361 28.3088 20.1414 28.3088 20.0704 28.3088C20.1651 26.4109 18.3418 24.9759 17.0868 24.8602C15.9265 24.8139 15.2635 24.9759 14.4348 25.0685C9.95944 25.5545 6.52598 26.11 3.11621 24.4898C3.23461 24.2121 3.353 23.9575 3.4714 23.7029Z" fill="white"/>
<path fill-rule="evenodd" clip-rule="evenodd" d="M2.71358 25.1838C5.41298 26.0404 7.59145 26.0635 12.3272 25.7163C13.4402 25.6237 16.1159 25.2996 17.0157 25.369C18.8153 25.4848 19.5967 27.1053 19.5493 28.2859C19.4546 28.2859 19.3836 28.2859 19.2889 28.2859C19.3836 26.9895 18.2233 25.832 17.0157 25.7626C15.9028 25.7394 14.6951 25.9246 13.9137 25.9709C9.62784 26.1793 5.55505 27.0127 2.28735 25.9015C2.40575 25.7163 2.59518 25.369 2.71358 25.1838Z" fill="white"/>
<path fill-rule="evenodd" clip-rule="evenodd" d="M1.86125 26.5498C4.41859 27.059 7.28374 26.7581 11.7591 26.5498C12.801 26.5035 15.6898 26.0869 16.5422 26.1101C18.2471 26.1795 18.6023 27.5913 18.5786 28.3088H18.3418C18.4365 27.5219 17.963 26.573 16.8027 26.5267C15.7608 26.5035 13.9849 26.735 13.2508 26.7813C9.2491 27.0127 4.60802 27.5219 1.19824 27.6376C1.31664 27.4988 1.74286 26.6424 1.86125 26.5498Z" fill="white"/>
<path fill-rule="evenodd" clip-rule="evenodd" d="M1.03243 27.9387C4.98682 27.9155 7.11793 27.5683 11.3565 27.2906C12.3747 27.2212 16.0923 26.9203 16.8974 26.9434C17.8208 27.0823 17.8919 28.0313 17.8445 28.7256H17.0868C17.2525 27.3369 14.9557 27.7767 12.8482 27.9155C9.01225 28.147 3.96863 28.633 0.700928 28.7488C0.843002 28.633 0.937718 28.0313 1.03243 27.9387Z" fill="white"/>
<path fill-rule="evenodd" clip-rule="evenodd" d="M20.8043 29.1882C19.3836 29.1882 18.2707 29.1882 16.8499 29.1882C16.5184 29.1419 16.8262 28.2855 16.6131 28.193C11.0959 28.4476 5.57872 28.7485 0.0615199 29.0031C-0.00951702 28.8873 -0.0095172 28.5401 0.0141618 28.3781C5.7208 28.0309 11.4511 27.7763 17.1577 27.406C17.4182 27.6606 17.0157 28.2161 17.2051 28.5401H20.8043H24.3798C24.5693 28.2161 24.1667 27.6606 24.4272 27.406C30.1338 27.7532 35.8641 28.0078 41.5708 28.3781C41.5944 28.5401 41.6181 28.8873 41.5234 29.0031C36.0062 28.7485 30.489 28.4476 24.9718 28.193C24.7587 28.3087 25.0665 29.1419 24.735 29.1882C23.3616 29.1882 22.225 29.1882 20.8043 29.1882Z" fill="white"/>
<path d="M3.87388 18.3557C3.73181 14.4902 4.82104 11.0183 6.78639 8.21753H5.69716C3.82652 11.0877 2.83201 14.5597 2.9504 18.3788C2.99776 19.8833 3.23455 21.411 3.63709 23.0081C3.70813 23.2396 3.94492 23.4016 4.18171 23.3322C4.4185 23.2627 4.58425 23.0313 4.51321 22.7998C4.13435 21.2721 3.92124 19.7908 3.87388 18.3557Z" fill="white"/>
<path d="M39.0844 17.662C38.9897 14.0279 37.5926 10.4169 35.2958 7.40782C32.9989 4.39871 29.8259 2.01457 26.132 0.857217C24.4271 0.324835 22.6275 0.0470705 20.7569 0.0933646C19.2414 0.139659 17.797 0.347982 16.3999 0.695188C14.0557 1.29701 11.9009 2.29233 10.054 3.63486V4.76906C11.9246 3.28765 14.1741 2.19974 16.6367 1.57477C17.9627 1.25072 19.3598 1.04239 20.8042 0.996099H20.8279C22.5801 0.949805 24.285 1.20442 25.8715 1.71366C29.3523 2.80157 32.3832 5.09312 34.5617 7.9402C36.7402 10.7873 38.0662 14.2362 38.1609 17.6851C38.2083 19.2359 37.9952 20.7636 37.4979 22.2682C37.4269 22.4997 37.5453 22.7543 37.782 22.8237C38.0188 22.8932 38.2793 22.7774 38.3503 22.546C38.9186 20.9257 39.1318 19.2822 39.0844 17.662Z" fill="white"/>
<path d="M5.36554 17.9623C5.2945 15.5319 5.83912 13.2173 6.85732 11.1803V10.0461C5.48393 12.384 4.72621 15.1153 4.82092 17.9855C4.89196 19.953 5.34186 21.9899 6.26534 24.0499C6.33638 24.1888 6.47845 24.2583 6.62053 24.1888C6.7626 24.1194 6.80996 23.9805 6.7626 23.8416C5.88648 21.8279 5.43658 19.8604 5.36554 17.9623Z" fill="white"/>
<path d="M34.2303 8.70322C32.3597 6.04132 29.6603 3.98124 26.3926 2.82389C24.6877 2.22207 22.817 1.87486 20.8517 1.80542H20.828C18.6969 1.87486 16.6368 2.3378 14.7425 3.14794C13.4165 3.70347 12.1852 4.44417 11.0486 5.30061H11.9484C12.8719 4.6525 13.8901 4.07382 14.9556 3.63403C16.7789 2.84703 18.7916 2.38409 20.8517 2.31465C22.7697 2.36095 24.5693 2.70815 26.2268 3.28683C29.3761 4.39788 32.0045 6.41167 33.8041 8.98098C35.6037 11.5503 36.5982 14.6751 36.5035 18.0314C36.4561 19.7906 36.1009 21.5961 35.4379 23.4478C35.3906 23.5867 35.4616 23.7487 35.6037 23.795C35.7458 23.8413 35.9115 23.7719 35.9589 23.633C36.6692 21.735 37.0244 19.8601 37.0718 18.0546C37.1191 14.6057 36.1009 11.3651 34.2303 8.70322Z" fill="white"/>
<path fill-rule="evenodd" clip-rule="evenodd" d="M22.5328 6.4811C23.2432 8.33284 22.5328 9.16613 22.6512 10.092C21.562 8.68005 20.1412 7.5227 18.8152 6.80515C18.5784 15.4158 13.6532 16.3648 9.5804 21.295C9.50937 21.4339 9.43833 21.5728 9.39097 21.7348V7.70788H15.2397V5.87928H9.39097V0H8.42013H7.4493V5.87928H1.60059V7.70788H7.4493V24.3504C7.4493 24.3504 8.30174 24.5124 9.27258 24.5819C12.4929 24.8365 15.6422 23.5403 18.2232 24.3041C19.2178 24.8134 20.0939 25.4615 20.6859 26.5725C22.0592 23.8412 24.3798 23.7255 27.2449 24.1884C29.4708 24.5356 33.3778 24.6976 34.325 24.0264C24.6166 20.0683 33.212 14.3742 22.5328 6.4811ZM20.5201 24.7671C18.9336 22.6376 16.9919 22.3829 17.205 20.3229C17.5129 17.3832 20.1412 15.0917 20.899 10.717C21.7277 11.2725 22.3907 12.453 23.0301 13.5872C23.3379 12.6844 23.8588 12.0363 24.2851 11.4345C26.2504 14.1658 25.8005 17.3832 24.1193 19.3507C22.5802 21.2025 19.4309 21.4571 20.5201 24.7671ZM24.877 21.5497C23.8352 22.2672 22.4618 22.5218 21.4436 23.332C21.3489 21.8737 23.1721 21.2719 24.1903 20.5081C25.2559 19.6979 25.6821 18.9572 26.3925 17.823C26.3215 19.2118 26.3214 20.5775 24.877 21.5497Z" fill="white"/>
</svg>
